 http://www.imdb.com/title/tt1691154/



Source : DVDR-IGUANA


Format : AVI
Format/Info : Audio Video Interleave
File size : 700 MiB
Duration : 1h 22mn
Overall bit rate : 1 180 Kbps
Writing library : VirtualDub build 32842/release

Video
ID : 0
Format : MPEG-4 Visual
Format profile : Advanced Simple@L5
Format settings, BVOP : 4
Format settings, QPel : No
Format settings, GMC : No warppoints
Format settings, Matrix : Default (H.263)
Muxing mode : Packed bitstream
Codec ID : XVID
Codec ID/Hint : XviD
Duration : 1h 22mn
Bit rate : 1 043 Kbps
Width : 640 pixels
Height : 352 pixels
Display aspect ratio : 16:9
Frame rate : 23.976 fps
Color space : YUV
Chroma subsampling : 4:2:0
Bit depth : 8 bits
Scan type : Progressive
Compression mode : Lossy
Bits/(Pixel*Frame) : 0.193
Stream size : 619 MiB (88%)
Writing library : XviD 64

Audio
ID : 1
Format : MPEG Audio
Format version : Version 1
Format profile : Layer 3
Codec ID : 55
Codec ID/Hint : MP3
Duration : 1h 22mn
Bit rate mode : Constant
Bit rate : 128 Kbps
Channel(s) : 2 channels
Sampling rate : 44.1 KHz
Compression mode : Lossy
Stream size : 75.9 MiB (11%)
Alignment : Split accross interleaves
Interleave, duration : 42 ms (1.00 video frame)
Interleave, preload duration : 500 ms
Writing library : LAME3.99r


Plot
Worried that he has gotten the free-spirited Mindy pregnant after an unprotected one-night stand, Fred feigns romantic interest and sticks by her side for twelve hours to make sure she takes both doses of the morning-after pill.

 
http://www.shotpix.com/images/37613056409265884664.png 
http://www.shotpix.com/images/46004214963855737771.png 
http://www.shotpix.com/images/95279469796881013320.png